<svg width="8" height="8" viewBox="0 0 8 8" fill="none" xmlns="http://www.w3.org/2000/svg">
<path fill-rule="evenodd" clip-rule="evenodd" d="M0 4.43044C0 4.29783 0.0526785 4.17066 0.146447 4.07689C0.240215 3.98312 0.367392 3.93044 0.5 3.93044H6.293L4.146 1.78444C4.05211 1.69055 3.99937 1.56322 3.99937 1.43044C3.99937 1.29767 4.05211 1.17033 4.146 1.07644C4.23989 0.982555 4.36722 0.92981 4.5 0.92981C4.63278 0.92981 4.76011 0.982555 4.854 1.07644L7.854 4.07644C7.90056 4.12289 7.93751 4.17806 7.96271 4.23881C7.98792 4.29955 8.00089 4.36467 8.00089 4.43044C8.00089 4.49621 7.98792 4.56133 7.96271 4.62207C7.93751 4.68282 7.90056 4.738 7.854 4.78444L4.854 7.78444C4.76011 7.87833 4.63278 7.93107 4.5 7.93107C4.36722 7.93107 4.23989 7.87833 4.146 7.78444C4.05211 7.69055 3.99937 7.56322 3.99937 7.43044C3.99937 7.29767 4.05211 7.17033 4.146 7.07644L6.293 4.93044H0.5C0.367392 4.93044 0.240215 4.87776 0.146447 4.784C0.0526785 4.69023 0 4.56305 0 4.43044Z" fill="#828282"/>
</svg>
