<svg width="8" height="8" viewBox="0 0 8 8" fill="none" xmlns="http://www.w3.org/2000/svg">
<path fill-rule="evenodd" clip-rule="evenodd" d="M7.99992 4.43044C7.99992 4.56305 7.94724 4.69023 7.85347 4.784C7.7597 4.87776 7.63253 4.93044 7.49992 4.93044H1.70692L3.85392 7.07644C3.90041 7.12293 3.93728 7.17812 3.96244 7.23886C3.9876 7.2996 4.00055 7.3647 4.00055 7.43044C4.00055 7.49619 3.9876 7.56129 3.96244 7.62203C3.93728 7.68276 3.90041 7.73795 3.85392 7.78444C3.80743 7.83093 3.75224 7.86781 3.6915 7.89296C3.63076 7.91812 3.56566 7.93107 3.49992 7.93107C3.43417 7.93107 3.36907 7.91812 3.30833 7.89296C3.24759 7.86781 3.19241 7.83093 3.14592 7.78444L0.145917 4.78444C0.0993539 4.738 0.062411 4.68282 0.0372045 4.62207C0.0119981 4.56133 -0.000976563 4.49621 -0.000976562 4.43044C-0.000976563 4.36467 0.0119981 4.29955 0.0372045 4.23881C0.062411 4.17806 0.0993539 4.12289 0.145917 4.07644L3.14592 1.07644C3.2398 0.982555 3.36714 0.92981 3.49992 0.92981C3.63269 0.92981 3.76003 0.982555 3.85392 1.07644C3.9478 1.17033 4.00055 1.29767 4.00055 1.43044C4.00055 1.56322 3.9478 1.69055 3.85392 1.78444L1.70692 3.93044H7.49992C7.63253 3.93044 7.7597 3.98312 7.85347 4.07689C7.94724 4.17066 7.99992 4.29783 7.99992 4.43044Z" fill="#828282"/>
</svg>
